<?xml version="1.0" encoding="UTF-8" standalone="no"?>
<!-- Created with Inkscape (http://www.inkscape.org/) -->

<svg
   width="42mm"
   height="10mm"
   viewBox="0 0 42 10"
   version="1.1"
   id="svg1"
   xmlns="http://www.w3.org/2000/svg"
   xmlns:svg="http://www.w3.org/2000/svg">
  <defs
     id="defs1" />
  <g
     id="layer1">
    <path
       style="font-size:11.2889px;font-family:Soviet;-inkscape-font-specification:Soviet;fill:#1a1a1a;stroke:#000000;stroke-width:0.264583"
       d="m 5.0086648,3.6598245 v -2.043291 q 0,-0.2822225 -0.2032002,-0.4741338 Q 4.6135533,0.9391995 4.3313308,0.9391995 H 1.6219947 q -0.2822225,0 -0.4854227,0.2032002 Q 0.94466069,1.334311 0.94466069,1.6165335 v 6.7959181 q 0,0.2822225 0.19191131,0.4854227 0.2032002,0.1919113 0.4854227,0.1919113 h 2.7093361 q 0.2822225,0 0.4741338,-0.1919113 0.2032002,-0.2032002 0.2032002,-0.4854227 v -2.043291 h -1.354668 v 1.354668 H 2.2993287 V 2.3051565 h 1.3546681 v 1.354668 z m 5.1928842,0 v -2.043291 q 0,-0.2822225 -0.2032004,-0.4741338 Q 9.8064373,0.9391995 9.5242148,0.9391995 H 6.8148787 q -0.2822225,0 -0.4854227,0.2032002 Q 6.1375447,1.334311 6.1375447,1.6165335 v 6.7959181 q 0,0.2822225 0.1919113,0.4854227 0.2032002,0.1919113 0.4854227,0.1919113 h 2.7093361 q 0.2822225,0 0.4741338,-0.1919113 Q 10.201549,8.6946741 10.201549,8.4124516 V 6.3691606 H 8.8468808 v 1.354668 H 7.4922127 V 2.3051565 h 1.3546681 v 1.354668 z m 5.192884,0 v -2.043291 q 0,-0.2822225 -0.2032,-0.4741338 -0.191912,-0.2032002 -0.474134,-0.2032002 h -2.709336 q -0.282223,0 -0.485423,0.2032002 -0.191911,0.1919113 -0.191911,0.4741338 v 6.7959181 q 0,0.2822225 0.191911,0.4854227 0.2032,0.1919113 0.485423,0.1919113 h 2.709336 q 0.282222,0 0.474134,-0.1919113 0.2032,-0.2032002 0.2032,-0.4854227 v -2.043291 h -1.354668 v 1.354668 H 12.685097 V 2.3051565 h 1.354668 v 1.354668 z m 5.192883,0 v -2.043291 q 0,-0.2822225 -0.2032,-0.4741338 -0.191911,-0.2032002 -0.474134,-0.2032002 h -2.709336 q -0.282222,0 -0.485423,0.2032002 -0.191911,0.1919113 -0.191911,0.4741338 v 6.7959181 q 0,0.2822225 0.191911,0.4854227 0.203201,0.1919113 0.485423,0.1919113 h 2.709336 q 0.282223,0 0.474134,-0.1919113 0.2032,-0.2032002 0.2032,-0.4854227 v -2.043291 h -1.354668 v 1.354668 H 17.87798 V 2.3051565 h 1.354668 v 1.354668 z m 5.192885,-2.043291 q 0,-0.2822225 -0.203201,-0.4741338 -0.191911,-0.2032002 -0.474133,-0.2032002 h -3.38667 v 8.1505861 h 1.354668 v -3.397959 h 2.032002 q 0.282222,0 0.474133,-0.1919113 0.203201,-0.2032003 0.203201,-0.4854228 z m -2.709336,0.688623 h 1.354668 v 2.032002 h -1.354668 z m 7.90222,-0.688623 q 0,-0.2822225 -0.2032,-0.4741338 -0.191911,-0.2032002 -0.474134,-0.2032002 h -3.38667 v 8.1505861 h 1.354668 v -3.397959 h 2.032002 q 0.282223,0 0.474134,-0.1919113 0.2032,-0.2032003 0.2032,-0.4854228 z m -2.709336,0.688623 h 1.354668 v 2.032002 h -1.354668 z m 7.902219,-0.688623 q 0,-0.2822225 -0.203201,-0.4741338 -0.191911,-0.2032002 -0.474133,-0.2032002 h -3.38667 v 8.1505861 h 1.354668 v -3.397959 h 2.032002 q 0.282222,0 0.474133,-0.1919113 0.203201,-0.2032003 0.203201,-0.4854228 z m -2.709336,0.688623 H 34.8113 v 2.032002 h -1.354668 z m 3.838218,-1.365957 h 4.064004 v 2.720625 h -1.354668 v -1.354668 h -1.354668 l 2.709336,5.4186721 v 1.365957 H 37.29485 v -2.720625 h 1.354668 v 1.354668 h 1.354668 L 37.29485,2.3051565 Z"
       id="text1"
       aria-label="CCCCPPPS" />
  </g>
</svg>
